<svg xmlns="http://www.w3.org/2000/svg" xmlns:xlink="http://www.w3.org/1999/xlink" width="800" zoomAndPan="magnify" viewBox="0 0 600 109.499999" height="146" preserveAspectRatio="xMidYMid meet" version="1.2"><defs><clipPath id="f3d55fafb7"><path d="M 26 46 L 125.296875 46 L 125.296875 62 L 26 62 Z M 26 46 "/></clipPath><clipPath id="74f208482a"><path d="M 45 8 L 125.296875 8 L 125.296875 25 L 45 25 Z M 45 8 "/></clipPath><clipPath id="2fa919327f"><path d="M 86 27 L 125.296875 27 L 125.296875 44 L 86 44 Z M 86 27 "/></clipPath><clipPath id="9f665cbdff"><path d="M 1.363281 46 L 20 46 L 20 62 L 1.363281 62 Z M 1.363281 46 "/></clipPath><clipPath id="c4e15c633f"><path d="M 49 65 L 125.296875 65 L 125.296875 81 L 49 81 Z M 49 65 "/></clipPath><clipPath id="ec48f1b7b9"><path d="M 56 84 L 125.296875 84 L 125.296875 100 L 56 100 Z M 56 84 "/></clipPath><clipPath id="28f84e74f2"><path d="M 124 0 L 129 0 L 129 109.003906 L 124 109.003906 Z M 124 0 "/></clipPath></defs><g id="67e62310d2"><g clip-rule="nonzero" clip-path="url(#f3d55fafb7)"><path style=" stroke:none;fill-rule:nonzero;fill:#7ed957;fill-opacity:1;" d="M 168.460938 46.527344 L 88.511719 46.527344 L 85.097656 52.429688 L 77.191406 52.429688 L 73.777344 46.527344 C 70.832031 46.527344 33.945312 46.527344 31.003906 46.527344 L 26.585938 54.171875 L 31.003906 61.820312 C 33.945312 61.820312 70.832031 61.820312 73.777344 61.820312 L 77.191406 55.917969 L 85.097656 55.917969 L 88.511719 61.820312 L 168.460938 61.820312 C 169.339844 56.769531 169.339844 51.59375 168.460938 46.527344 Z M 168.460938 46.527344 "/></g><g clip-rule="nonzero" clip-path="url(#74f208482a)"><path style=" stroke:none;fill-rule:nonzero;fill:#7ed957;fill-opacity:1;" d="M 58.695312 24.21875 L 62.109375 18.316406 L 70.015625 18.316406 L 73.429688 24.21875 L 157.71875 24.21875 C 141.878906 6.359375 124.109375 8.910156 102.683594 8.910156 L 73.429688 8.910156 L 70.015625 14.8125 L 62.109375 14.8125 L 58.695312 8.910156 L 49.863281 8.910156 L 45.449219 16.558594 L 49.863281 24.203125 L 58.695312 24.203125 Z M 58.695312 24.21875 "/></g><g clip-rule="nonzero" clip-path="url(#2fa919327f)"><path style=" stroke:none;fill-rule:nonzero;fill:#7ed957;fill-opacity:1;" d="M 111.5 33.628906 L 103.59375 33.628906 L 100.179688 27.726562 L 91.347656 27.726562 L 86.933594 35.371094 L 91.347656 43.019531 L 100.179688 43.019531 L 103.59375 37.117188 L 111.5 37.117188 L 114.914062 43.019531 L 167.71875 43.019531 C 166.292969 37.4375 163.816406 32.261719 160.527344 27.710938 L 114.914062 27.710938 Z M 111.5 33.628906 "/></g><g clip-rule="nonzero" clip-path="url(#9f665cbdff)"><path style=" stroke:none;fill-rule:nonzero;fill:#7ed957;fill-opacity:1;" d="M 5.785156 46.527344 L 1.367188 54.171875 L 5.785156 61.835938 L 14.628906 61.835938 L 19.046875 54.171875 L 14.628906 46.527344 Z M 5.785156 46.527344 "/></g><path style=" stroke:none;fill-rule:nonzero;fill:#7ed957;fill-opacity:1;" d="M 61.714844 35.371094 L 66.128906 43.019531 L 74.976562 43.019531 L 79.390625 35.371094 L 74.976562 27.726562 L 66.128906 27.726562 Z M 61.714844 35.371094 "/><path style=" stroke:none;fill-rule:nonzero;fill:#7ed957;fill-opacity:1;" d="M 35.964844 84.125 L 31.535156 91.789062 L 35.964844 99.4375 L 44.796875 99.4375 L 49.210938 91.789062 L 44.796875 84.125 Z M 35.964844 84.125 "/><g clip-rule="nonzero" clip-path="url(#c4e15c633f)"><path style=" stroke:none;fill-rule:nonzero;fill:#7ed957;fill-opacity:1;" d="M 73.777344 71.226562 L 65.871094 71.226562 L 62.457031 65.324219 L 53.625 65.324219 L 49.210938 72.972656 L 53.625 80.621094 L 62.457031 80.621094 L 65.871094 74.71875 L 73.777344 74.71875 L 77.191406 80.621094 L 160.511719 80.621094 C 163.804688 76.070312 166.277344 70.894531 167.703125 65.3125 C 140.042969 65.3125 104.839844 65.3125 77.175781 65.3125 Z M 73.777344 71.226562 "/></g><g clip-rule="nonzero" clip-path="url(#ec48f1b7b9)"><path style=" stroke:none;fill-rule:nonzero;fill:#7ed957;fill-opacity:1;" d="M 96.417969 90.042969 L 88.511719 90.042969 L 85.097656 84.140625 C 77.132812 84.140625 69.148438 84.140625 61.167969 84.140625 L 56.753906 91.789062 L 61.167969 99.4375 C 69.148438 99.4375 77.117188 99.4375 85.097656 99.4375 L 88.511719 93.535156 L 96.417969 93.535156 L 99.832031 99.4375 C 122.453125 99.4375 141.46875 102.457031 157.71875 84.125 L 99.832031 84.125 Z M 96.417969 90.042969 "/></g><g style="fill:#000000;fill-opacity:1;"><g transform="translate(133.805387, 59.171907)"><path style="stroke:none" d="M 10.015625 0 L -0.546875 0 L 13.796875 -37.890625 L 24.625 -37.890625 L 38.96875 0 L 28.421875 0 L 25.984375 -6.765625 L 12.453125 -6.765625 Z M 14.890625 -13.796875 L 23.546875 -13.796875 L 19.21875 -26.515625 Z M 14.890625 -13.796875 "/></g></g><g style="fill:#000000;fill-opacity:1;"><g transform="translate(188.624181, 59.171907)"><path style="stroke:none" d="M 35.71875 -0.8125 C 27.28125 0.09375 19.523438 0.546875 12.453125 0.546875 C 8.910156 0.546875 6.3125 -0.28125 4.65625 -1.9375 C 3 -3.601562 2.171875 -6.207031 2.171875 -9.75 L 2.171875 -27.0625 C 2.171875 -30.851562 3.023438 -33.601562 4.734375 -35.3125 C 6.453125 -37.03125 9.203125 -37.890625 12.984375 -37.890625 L 32.46875 -37.890625 L 32.46875 -30.3125 L 15.15625 -30.3125 C 12.988281 -30.3125 11.90625 -29.226562 11.90625 -27.0625 L 11.90625 -9.75 C 11.90625 -8.914062 12.148438 -8.253906 12.640625 -7.765625 C 13.128906 -7.273438 13.785156 -7.03125 14.609375 -7.03125 C 18.765625 -7.03125 22.554688 -7.125 25.984375 -7.3125 L 25.984375 -15.15625 L 18.9375 -15.15625 L 18.9375 -21.65625 L 35.71875 -21.65625 Z M 35.71875 -0.8125 "/></g></g><g style="fill:#000000;fill-opacity:1;"><g transform="translate(242.901876, 59.171907)"><path style="stroke:none" d="M 3.25 -37.890625 L 25.984375 -37.890625 C 29.765625 -37.890625 32.515625 -37.03125 34.234375 -35.3125 C 35.953125 -33.601562 36.8125 -30.851562 36.8125 -27.0625 L 36.8125 -22.1875 C 36.8125 -19.195312 36.3125 -16.867188 35.3125 -15.203125 C 34.320312 -13.546875 32.742188 -12.445312 30.578125 -11.90625 L 37.34375 0 L 26.796875 0 L 20.5625 -11.359375 L 12.984375 -11.359375 L 12.984375 0 L 3.25 0 Z M 27.0625 -27.0625 C 27.0625 -29.226562 25.976562 -30.3125 23.8125 -30.3125 L 12.984375 -30.3125 L 12.984375 -18.9375 L 23.8125 -18.9375 C 25.976562 -18.9375 27.0625 -20.019531 27.0625 -22.1875 Z M 27.0625 -27.0625 "/></g></g><g style="fill:#000000;fill-opacity:1;"><g transform="translate(298.261771, 59.171907)"><path style="stroke:none" d="M 21.109375 0 L 1.625 0 L 1.625 -7.578125 L 6.5 -7.578125 L 6.5 -30.3125 L 1.625 -30.3125 L 1.625 -37.890625 L 21.109375 -37.890625 L 21.109375 -30.3125 L 16.234375 -30.3125 L 16.234375 -7.578125 L 21.109375 -7.578125 Z M 21.109375 0 "/></g></g><g style="fill:#000000;fill-opacity:1;"><g transform="translate(337.38869, 59.171907)"><path style="stroke:none" d="M 2.109375 -7.84375 C 11.992188 -7.300781 18.6875 -7.03125 22.1875 -7.03125 C 23.019531 -7.03125 23.675781 -7.273438 24.15625 -7.765625 C 24.644531 -8.253906 24.890625 -8.914062 24.890625 -9.75 L 24.890625 -14.609375 L 12.453125 -14.609375 C 8.660156 -14.609375 5.90625 -15.460938 4.1875 -17.171875 C 2.476562 -18.890625 1.625 -21.644531 1.625 -25.4375 L 1.625 -27.0625 C 1.625 -30.851562 2.476562 -33.601562 4.1875 -35.3125 C 5.90625 -37.03125 8.660156 -37.890625 12.453125 -37.890625 L 31.453125 -37.890625 L 31.453125 -30.3125 L 14.609375 -30.3125 C 12.441406 -30.3125 11.359375 -29.226562 11.359375 -27.0625 L 11.359375 -25.984375 C 11.359375 -23.816406 12.441406 -22.734375 14.609375 -22.734375 L 24.359375 -22.734375 C 27.890625 -22.734375 30.484375 -21.898438 32.140625 -20.234375 C 33.804688 -18.578125 34.640625 -15.984375 34.640625 -12.453125 L 34.640625 -9.75 C 34.640625 -6.207031 33.804688 -3.601562 32.140625 -1.9375 C 30.484375 -0.28125 27.890625 0.546875 24.359375 0.546875 C 22.515625 0.546875 20.566406 0.507812 18.515625 0.4375 L 13.53125 0.21875 C 9.851562 0.0390625 6.046875 -0.210938 2.109375 -0.546875 Z M 2.109375 -7.84375 "/></g></g><g style="fill:#000000;fill-opacity:1;"><g transform="translate(390.043109, 59.171907)"><path style="stroke:none" d="M 21.65625 0 L 11.90625 0 L 11.90625 -30.3125 L 0.546875 -30.3125 L 0.546875 -37.890625 L 33.015625 -37.890625 L 33.015625 -30.3125 L 21.65625 -30.3125 Z M 21.65625 0 "/></g></g><g style="fill:#000000;fill-opacity:1;"><g transform="translate(439.992013, 59.171907)"><path style="stroke:none" d="M 10.015625 0 L -0.546875 0 L 13.796875 -37.890625 L 24.625 -37.890625 L 38.96875 0 L 28.421875 0 L 25.984375 -6.765625 L 12.453125 -6.765625 Z M 14.890625 -13.796875 L 23.546875 -13.796875 L 19.21875 -26.515625 Z M 14.890625 -13.796875 "/></g></g><g style="fill:#000000;fill-opacity:1;"><g transform="translate(494.810807, 59.171907)"><path style="stroke:none" d="M 21.65625 0 L 11.90625 0 L 11.90625 -30.3125 L 0.546875 -30.3125 L 0.546875 -37.890625 L 33.015625 -37.890625 L 33.015625 -30.3125 L 21.65625 -30.3125 Z M 21.65625 0 "/></g></g><g style="fill:#000000;fill-opacity:1;"><g transform="translate(544.759711, 59.171907)"><path style="stroke:none" d="M 2.109375 -7.84375 C 11.992188 -7.300781 18.6875 -7.03125 22.1875 -7.03125 C 23.019531 -7.03125 23.675781 -7.273438 24.15625 -7.765625 C 24.644531 -8.253906 24.890625 -8.914062 24.890625 -9.75 L 24.890625 -14.609375 L 12.453125 -14.609375 C 8.660156 -14.609375 5.90625 -15.460938 4.1875 -17.171875 C 2.476562 -18.890625 1.625 -21.644531 1.625 -25.4375 L 1.625 -27.0625 C 1.625 -30.851562 2.476562 -33.601562 4.1875 -35.3125 C 5.90625 -37.03125 8.660156 -37.890625 12.453125 -37.890625 L 31.453125 -37.890625 L 31.453125 -30.3125 L 14.609375 -30.3125 C 12.441406 -30.3125 11.359375 -29.226562 11.359375 -27.0625 L 11.359375 -25.984375 C 11.359375 -23.816406 12.441406 -22.734375 14.609375 -22.734375 L 24.359375 -22.734375 C 27.890625 -22.734375 30.484375 -21.898438 32.140625 -20.234375 C 33.804688 -18.578125 34.640625 -15.984375 34.640625 -12.453125 L 34.640625 -9.75 C 34.640625 -6.207031 33.804688 -3.601562 32.140625 -1.9375 C 30.484375 -0.28125 27.890625 0.546875 24.359375 0.546875 C 22.515625 0.546875 20.566406 0.507812 18.515625 0.4375 L 13.53125 0.21875 C 9.851562 0.0390625 6.046875 -0.210938 2.109375 -0.546875 Z M 2.109375 -7.84375 "/></g></g><g style="fill:#000000;fill-opacity:1;"><g transform="translate(135.629598, 84.762167)"><path style="stroke:none" d="M 3.203125 0 L -0.171875 0 L 4.421875 -12.125 L 7.875 -12.125 L 12.46875 0 L 9.09375 0 L 8.3125 -2.171875 L 3.984375 -2.171875 Z M 4.765625 -4.421875 L 7.53125 -4.421875 L 6.140625 -8.484375 Z M 4.765625 -4.421875 "/></g></g><g style="fill:#000000;fill-opacity:1;"><g transform="translate(157.399302, 84.762167)"><path style="stroke:none" d="M 11.421875 -0.265625 C 8.722656 0.0234375 6.242188 0.171875 3.984375 0.171875 C 2.847656 0.171875 2.015625 -0.09375 1.484375 -0.625 C 0.953125 -1.15625 0.6875 -1.984375 0.6875 -3.109375 L 0.6875 -8.65625 C 0.6875 -9.863281 0.960938 -10.742188 1.515625 -11.296875 C 2.066406 -11.847656 2.945312 -12.125 4.15625 -12.125 L 10.390625 -12.125 L 10.390625 -9.6875 L 4.84375 -9.6875 C 4.15625 -9.6875 3.8125 -9.34375 3.8125 -8.65625 L 3.8125 -3.109375 C 3.8125 -2.847656 3.890625 -2.640625 4.046875 -2.484375 C 4.203125 -2.328125 4.410156 -2.25 4.671875 -2.25 C 6.003906 -2.25 7.21875 -2.28125 8.3125 -2.34375 L 8.3125 -4.84375 L 6.0625 -4.84375 L 6.0625 -6.921875 L 11.421875 -6.921875 Z M 11.421875 -0.265625 "/></g></g><g style="fill:#000000;fill-opacity:1;"><g transform="translate(178.996046, 84.762167)"><path style="stroke:none" d="M 1.03125 -12.125 L 8.3125 -12.125 C 9.519531 -12.125 10.394531 -11.847656 10.9375 -11.296875 C 11.488281 -10.742188 11.765625 -9.863281 11.765625 -8.65625 L 11.765625 -7.09375 C 11.765625 -6.132812 11.609375 -5.390625 11.296875 -4.859375 C 10.984375 -4.328125 10.476562 -3.976562 9.78125 -3.8125 L 11.953125 0 L 8.5625 0 L 6.578125 -3.640625 L 4.15625 -3.640625 L 4.15625 0 L 1.03125 0 Z M 8.65625 -8.65625 C 8.65625 -9.34375 8.3125 -9.6875 7.625 -9.6875 L 4.15625 -9.6875 L 4.15625 -6.0625 L 7.625 -6.0625 C 8.3125 -6.0625 8.65625 -6.40625 8.65625 -7.09375 Z M 8.65625 -8.65625 "/></g></g><g style="fill:#000000;fill-opacity:1;"><g transform="translate(200.938725, 84.762167)"><path style="stroke:none" d="M 6.75 0 L 0.515625 0 L 0.515625 -2.421875 L 2.078125 -2.421875 L 2.078125 -9.6875 L 0.515625 -9.6875 L 0.515625 -12.125 L 6.75 -12.125 L 6.75 -9.6875 L 5.1875 -9.6875 L 5.1875 -2.421875 L 6.75 -2.421875 Z M 6.75 0 "/></g></g><g style="fill:#000000;fill-opacity:1;"><g transform="translate(217.692282, 84.762167)"><path style="stroke:none" d="M 10.390625 -0.171875 C 7.816406 0.0546875 5.679688 0.171875 3.984375 0.171875 C 2.847656 0.171875 2.015625 -0.09375 1.484375 -0.625 C 0.953125 -1.15625 0.6875 -1.984375 0.6875 -3.109375 L 0.6875 -8.65625 C 0.6875 -9.863281 0.960938 -10.742188 1.515625 -11.296875 C 2.066406 -11.847656 2.945312 -12.125 4.15625 -12.125 L 10.390625 -12.125 L 10.390625 -9.6875 L 4.84375 -9.6875 C 4.15625 -9.6875 3.8125 -9.34375 3.8125 -8.65625 L 3.8125 -3.109375 C 3.8125 -2.847656 3.890625 -2.640625 4.046875 -2.484375 C 4.203125 -2.328125 4.398438 -2.25 4.640625 -2.25 C 4.878906 -2.25 5.144531 -2.25 5.4375 -2.25 C 5.726562 -2.257812 6.023438 -2.269531 6.328125 -2.28125 C 6.640625 -2.289062 6.953125 -2.300781 7.265625 -2.3125 C 7.585938 -2.332031 8 -2.359375 8.5 -2.390625 C 9.007812 -2.421875 9.640625 -2.460938 10.390625 -2.515625 Z M 10.390625 -0.171875 "/></g></g><g style="fill:#000000;fill-opacity:1;"><g transform="translate(237.905258, 84.762167)"><path style="stroke:none" d="M 8.828125 -12.125 L 11.953125 -12.125 L 11.953125 -3.296875 C 11.953125 -2.078125 11.675781 -1.191406 11.125 -0.640625 C 10.570312 -0.0976562 9.691406 0.171875 8.484375 0.171875 L 4.5 0.171875 C 3.289062 0.171875 2.410156 -0.0976562 1.859375 -0.640625 C 1.304688 -1.191406 1.03125 -2.078125 1.03125 -3.296875 L 1.03125 -12.125 L 4.15625 -12.125 L 4.15625 -3.296875 C 4.15625 -2.597656 4.5 -2.25 5.1875 -2.25 L 7.796875 -2.25 C 8.484375 -2.25 8.828125 -2.597656 8.828125 -3.296875 Z M 8.828125 -12.125 "/></g></g><g style="fill:#000000;fill-opacity:1;"><g transform="translate(260.366847, 84.762167)"><path style="stroke:none" d="M 4.15625 -2.421875 L 10.46875 -2.421875 L 10.46875 0 L 1.03125 0 L 1.03125 -12.125 L 4.15625 -12.125 Z M 4.15625 -2.421875 "/></g></g><g style="fill:#000000;fill-opacity:1;"><g transform="translate(280.493335, 84.762167)"><path style="stroke:none" d="M 6.921875 0 L 3.8125 0 L 3.8125 -9.6875 L 0.171875 -9.6875 L 0.171875 -12.125 L 10.5625 -12.125 L 10.5625 -9.6875 L 6.921875 -9.6875 Z M 6.921875 0 "/></g></g><g style="fill:#000000;fill-opacity:1;"><g transform="translate(300.706311, 84.762167)"><path style="stroke:none" d="M 8.828125 -12.125 L 11.953125 -12.125 L 11.953125 -3.296875 C 11.953125 -2.078125 11.675781 -1.191406 11.125 -0.640625 C 10.570312 -0.0976562 9.691406 0.171875 8.484375 0.171875 L 4.5 0.171875 C 3.289062 0.171875 2.410156 -0.0976562 1.859375 -0.640625 C 1.304688 -1.191406 1.03125 -2.078125 1.03125 -3.296875 L 1.03125 -12.125 L 4.15625 -12.125 L 4.15625 -3.296875 C 4.15625 -2.597656 4.5 -2.25 5.1875 -2.25 L 7.796875 -2.25 C 8.484375 -2.25 8.828125 -2.597656 8.828125 -3.296875 Z M 8.828125 -12.125 "/></g></g><g style="fill:#000000;fill-opacity:1;"><g transform="translate(323.1679, 84.762167)"><path style="stroke:none" d="M 1.03125 -12.125 L 8.3125 -12.125 C 9.519531 -12.125 10.394531 -11.847656 10.9375 -11.296875 C 11.488281 -10.742188 11.765625 -9.863281 11.765625 -8.65625 L 11.765625 -7.09375 C 11.765625 -6.132812 11.609375 -5.390625 11.296875 -4.859375 C 10.984375 -4.328125 10.476562 -3.976562 9.78125 -3.8125 L 11.953125 0 L 8.5625 0 L 6.578125 -3.640625 L 4.15625 -3.640625 L 4.15625 0 L 1.03125 0 Z M 8.65625 -8.65625 C 8.65625 -9.34375 8.3125 -9.6875 7.625 -9.6875 L 4.15625 -9.6875 L 4.15625 -6.0625 L 7.625 -6.0625 C 8.3125 -6.0625 8.65625 -6.40625 8.65625 -7.09375 Z M 8.65625 -8.65625 "/></g></g><g style="fill:#000000;fill-opacity:1;"><g transform="translate(345.110579, 84.762167)"><path style="stroke:none" d="M 10.640625 0 L 1.03125 0 L 1.03125 -12.125 L 10.640625 -12.125 L 10.640625 -9.6875 L 4.15625 -9.6875 L 4.15625 -7.359375 L 9.265625 -7.359375 L 9.265625 -4.9375 L 4.15625 -4.9375 L 4.15625 -2.421875 L 10.640625 -2.421875 Z M 10.640625 0 "/></g></g><g style="fill:#000000;fill-opacity:1;"><g transform="translate(365.583003, 84.762167)"><path style="stroke:none" d=""/></g></g><g style="fill:#000000;fill-opacity:1;"><g transform="translate(380.260894, 84.762167)"><path style="stroke:none" d="M 0.671875 -2.515625 C 3.835938 -2.335938 5.976562 -2.25 7.09375 -2.25 C 7.363281 -2.25 7.578125 -2.328125 7.734375 -2.484375 C 7.890625 -2.640625 7.96875 -2.847656 7.96875 -3.109375 L 7.96875 -4.671875 L 3.984375 -4.671875 C 2.773438 -4.671875 1.894531 -4.941406 1.34375 -5.484375 C 0.789062 -6.035156 0.515625 -6.921875 0.515625 -8.140625 L 0.515625 -8.65625 C 0.515625 -9.863281 0.789062 -10.742188 1.34375 -11.296875 C 1.894531 -11.847656 2.773438 -12.125 3.984375 -12.125 L 10.0625 -12.125 L 10.0625 -9.6875 L 4.671875 -9.6875 C 3.984375 -9.6875 3.640625 -9.34375 3.640625 -8.65625 L 3.640625 -8.3125 C 3.640625 -7.613281 3.984375 -7.265625 4.671875 -7.265625 L 7.796875 -7.265625 C 8.921875 -7.265625 9.75 -7 10.28125 -6.46875 C 10.8125 -5.9375 11.078125 -5.109375 11.078125 -3.984375 L 11.078125 -3.109375 C 11.078125 -1.984375 10.8125 -1.15625 10.28125 -0.625 C 9.75 -0.09375 8.921875 0.171875 7.796875 0.171875 C 7.203125 0.171875 6.578125 0.160156 5.921875 0.140625 L 4.328125 0.0625 C 3.148438 0.0078125 1.929688 -0.0664062 0.671875 -0.171875 Z M 0.671875 -2.515625 "/></g></g><g style="fill:#000000;fill-opacity:1;"><g transform="translate(401.338714, 84.762167)"><path style="stroke:none" d="M 6.921875 0 L 3.8125 0 L 3.8125 -9.6875 L 0.171875 -9.6875 L 0.171875 -12.125 L 10.5625 -12.125 L 10.5625 -9.6875 L 6.921875 -9.6875 Z M 6.921875 0 "/></g></g><g style="fill:#000000;fill-opacity:1;"><g transform="translate(421.55169, 84.762167)"><path style="stroke:none" d="M 3.203125 0 L -0.171875 0 L 4.421875 -12.125 L 7.875 -12.125 L 12.46875 0 L 9.09375 0 L 8.3125 -2.171875 L 3.984375 -2.171875 Z M 4.765625 -4.421875 L 7.53125 -4.421875 L 6.140625 -8.484375 Z M 4.765625 -4.421875 "/></g></g><g style="fill:#000000;fill-opacity:1;"><g transform="translate(443.321408, 84.762167)"><path style="stroke:none" d="M 6.921875 0 L 3.8125 0 L 3.8125 -9.6875 L 0.171875 -9.6875 L 0.171875 -12.125 L 10.5625 -12.125 L 10.5625 -9.6875 L 6.921875 -9.6875 Z M 6.921875 0 "/></g></g><g style="fill:#000000;fill-opacity:1;"><g transform="translate(463.534385, 84.762167)"><path style="stroke:none" d="M 6.75 0 L 0.515625 0 L 0.515625 -2.421875 L 2.078125 -2.421875 L 2.078125 -9.6875 L 0.515625 -9.6875 L 0.515625 -12.125 L 6.75 -12.125 L 6.75 -9.6875 L 5.1875 -9.6875 L 5.1875 -2.421875 L 6.75 -2.421875 Z M 6.75 0 "/></g></g><g style="fill:#000000;fill-opacity:1;"><g transform="translate(480.287927, 84.762167)"><path style="stroke:none" d="M 0.671875 -2.515625 C 3.835938 -2.335938 5.976562 -2.25 7.09375 -2.25 C 7.363281 -2.25 7.578125 -2.328125 7.734375 -2.484375 C 7.890625 -2.640625 7.96875 -2.847656 7.96875 -3.109375 L 7.96875 -4.671875 L 3.984375 -4.671875 C 2.773438 -4.671875 1.894531 -4.941406 1.34375 -5.484375 C 0.789062 -6.035156 0.515625 -6.921875 0.515625 -8.140625 L 0.515625 -8.65625 C 0.515625 -9.863281 0.789062 -10.742188 1.34375 -11.296875 C 1.894531 -11.847656 2.773438 -12.125 3.984375 -12.125 L 10.0625 -12.125 L 10.0625 -9.6875 L 4.671875 -9.6875 C 3.984375 -9.6875 3.640625 -9.34375 3.640625 -8.65625 L 3.640625 -8.3125 C 3.640625 -7.613281 3.984375 -7.265625 4.671875 -7.265625 L 7.796875 -7.265625 C 8.921875 -7.265625 9.75 -7 10.28125 -6.46875 C 10.8125 -5.9375 11.078125 -5.109375 11.078125 -3.984375 L 11.078125 -3.109375 C 11.078125 -1.984375 10.8125 -1.15625 10.28125 -0.625 C 9.75 -0.09375 8.921875 0.171875 7.796875 0.171875 C 7.203125 0.171875 6.578125 0.160156 5.921875 0.140625 L 4.328125 0.0625 C 3.148438 0.0078125 1.929688 -0.0664062 0.671875 -0.171875 Z M 0.671875 -2.515625 "/></g></g><g style="fill:#000000;fill-opacity:1;"><g transform="translate(501.365748, 84.762167)"><path style="stroke:none" d="M 6.921875 0 L 3.8125 0 L 3.8125 -9.6875 L 0.171875 -9.6875 L 0.171875 -12.125 L 10.5625 -12.125 L 10.5625 -9.6875 L 6.921875 -9.6875 Z M 6.921875 0 "/></g></g><g style="fill:#000000;fill-opacity:1;"><g transform="translate(521.578724, 84.762167)"><path style="stroke:none" d="M 6.75 0 L 0.515625 0 L 0.515625 -2.421875 L 2.078125 -2.421875 L 2.078125 -9.6875 L 0.515625 -9.6875 L 0.515625 -12.125 L 6.75 -12.125 L 6.75 -9.6875 L 5.1875 -9.6875 L 5.1875 -2.421875 L 6.75 -2.421875 Z M 6.75 0 "/></g></g><g style="fill:#000000;fill-opacity:1;"><g transform="translate(538.332294, 84.762167)"><path style="stroke:none" d="M 10.390625 -0.171875 C 7.816406 0.0546875 5.679688 0.171875 3.984375 0.171875 C 2.847656 0.171875 2.015625 -0.09375 1.484375 -0.625 C 0.953125 -1.15625 0.6875 -1.984375 0.6875 -3.109375 L 0.6875 -8.65625 C 0.6875 -9.863281 0.960938 -10.742188 1.515625 -11.296875 C 2.066406 -11.847656 2.945312 -12.125 4.15625 -12.125 L 10.390625 -12.125 L 10.390625 -9.6875 L 4.84375 -9.6875 C 4.15625 -9.6875 3.8125 -9.34375 3.8125 -8.65625 L 3.8125 -3.109375 C 3.8125 -2.847656 3.890625 -2.640625 4.046875 -2.484375 C 4.203125 -2.328125 4.398438 -2.25 4.640625 -2.25 C 4.878906 -2.25 5.144531 -2.25 5.4375 -2.25 C 5.726562 -2.257812 6.023438 -2.269531 6.328125 -2.28125 C 6.640625 -2.289062 6.953125 -2.300781 7.265625 -2.3125 C 7.585938 -2.332031 8 -2.359375 8.5 -2.390625 C 9.007812 -2.421875 9.640625 -2.460938 10.390625 -2.515625 Z M 10.390625 -0.171875 "/></g></g><g style="fill:#000000;fill-opacity:1;"><g transform="translate(558.54527, 84.762167)"><path style="stroke:none" d="M 0.671875 -2.515625 C 3.835938 -2.335938 5.976562 -2.25 7.09375 -2.25 C 7.363281 -2.25 7.578125 -2.328125 7.734375 -2.484375 C 7.890625 -2.640625 7.96875 -2.847656 7.96875 -3.109375 L 7.96875 -4.671875 L 3.984375 -4.671875 C 2.773438 -4.671875 1.894531 -4.941406 1.34375 -5.484375 C 0.789062 -6.035156 0.515625 -6.921875 0.515625 -8.140625 L 0.515625 -8.65625 C 0.515625 -9.863281 0.789062 -10.742188 1.34375 -11.296875 C 1.894531 -11.847656 2.773438 -12.125 3.984375 -12.125 L 10.0625 -12.125 L 10.0625 -9.6875 L 4.671875 -9.6875 C 3.984375 -9.6875 3.640625 -9.34375 3.640625 -8.65625 L 3.640625 -8.3125 C 3.640625 -7.613281 3.984375 -7.265625 4.671875 -7.265625 L 7.796875 -7.265625 C 8.921875 -7.265625 9.75 -7 10.28125 -6.46875 C 10.8125 -5.9375 11.078125 -5.109375 11.078125 -3.984375 L 11.078125 -3.109375 C 11.078125 -1.984375 10.8125 -1.15625 10.28125 -0.625 C 9.75 -0.09375 8.921875 0.171875 7.796875 0.171875 C 7.203125 0.171875 6.578125 0.160156 5.921875 0.140625 L 4.328125 0.0625 C 3.148438 0.0078125 1.929688 -0.0664062 0.671875 -0.171875 Z M 0.671875 -2.515625 "/></g></g><g clip-rule="nonzero" clip-path="url(#28f84e74f2)"><path style="fill:none;stroke-width:6;stroke-linecap:round;stroke-linejoin:miter;stroke:#7ed957;stroke-opacity:1;stroke-miterlimit:4;" d="M 2.999874 2.999503 L 143.006064 2.999503 " transform="matrix(0,0.746591,-0.746591,0,128.528464,0.00250924)"/></g></g></svg>